<?xml version="1.0" encoding="UTF-8" standalone="no"?>
<svg width="137px" height="14px" viewBox="0 0 137 14" version="1.1" xmlns="http://www.w3.org/2000/svg" xmlns:xlink="http://www.w3.org/1999/xlink">
    <!-- Generator: Sketch 43.1 (39012) - http://www.bohemiancoding.com/sketch -->
    <title>CHUBB_Logo_White_T</title>
    <desc>Created with Sketch.</desc>
    <defs></defs>
    <g id="Page-1" stroke="none" stroke-width="1" fill="none" fill-rule="evenodd">
        <g id="CHUBB_Logo_White_T" fill="#FFFFFF">
            <path d="M18.865,2.629 L18.865,0.158 L3.54,0.158 C1.187,0.158 0,1.364 0,3.322 L0,10.836 C0,12.794 1.187,14 3.54,14 L18.865,14 L18.865,11.528 L2.67,11.528 L2.67,2.629 L18.865,2.629 Z M29.089,5.813 L29.089,0.158 L26.479,0.158 L26.479,14 L29.089,14 L29.089,8.246 L43.03,8.246 L43.03,14 L45.641,14 L45.641,0.158 L43.03,0.158 L43.03,5.813 L29.089,5.813 Z M70.992,0.158 L70.992,11.528 L57.249,11.528 L57.249,0.158 L54.638,0.158 L54.638,10.836 C54.638,12.794 55.825,14 58.178,14 L70.063,14 C72.416,14 73.603,12.794 73.603,10.836 L73.603,0.158 L70.992,0.158 Z M98.657,14 C101.227,14 102.414,12.932 102.414,11.093 L102.414,9.472 C102.414,8.957 102.236,8.72 101.86,8.404 L100.199,6.98 L101.86,5.556 C102.236,5.24 102.414,5.002 102.414,4.488 L102.414,3.064 C102.414,1.225 101.227,0.158 98.657,0.158 L82.599,0.158 L82.599,14 L98.657,14 Z M85.21,5.873 L99.745,5.873 L99.745,2.511 L85.21,2.511 L85.21,5.873 Z M85.21,11.647 L99.745,11.647 L99.745,8.186 L85.21,8.186 L85.21,11.647 Z M126.737,14 C129.308,14 130.494,12.932 130.494,11.093 L130.494,9.472 C130.494,8.957 130.316,8.72 129.94,8.404 L128.279,6.98 L129.94,5.556 C130.316,5.24 130.494,5.002 130.494,4.488 L130.494,3.064 C130.494,1.225 129.308,0.158 126.737,0.158 L110.68,0.158 L110.68,14 L126.737,14 Z M113.29,5.873 L127.825,5.873 L127.825,2.511 L113.29,2.511 L113.29,5.873 Z M113.29,11.647 L127.825,11.647 L127.825,8.186 L113.29,8.186 L113.29,11.647 Z" id="Fill-1"></path>
            <path d="M135.269,1.92 C135.348,1.915 135.418,1.901 135.479,1.877 C135.54,1.853 135.589,1.815 135.626,1.763 C135.663,1.71 135.682,1.638 135.682,1.547 C135.682,1.469 135.668,1.407 135.639,1.36 C135.61,1.312 135.571,1.274 135.522,1.245 C135.473,1.217 135.418,1.197 135.357,1.187 C135.297,1.177 135.232,1.172 135.165,1.172 L134.673,1.172 L134.673,1.928 L135.028,1.928 C135.109,1.928 135.189,1.925 135.269,1.92 Z M134.404,3.125 L134.404,0.944 L135.241,0.944 C135.488,0.944 135.668,0.995 135.781,1.098 C135.894,1.201 135.951,1.351 135.951,1.547 C135.951,1.642 135.936,1.725 135.908,1.796 C135.879,1.867 135.839,1.927 135.789,1.976 C135.738,2.025 135.679,2.064 135.614,2.093 C135.548,2.121 135.477,2.142 135.403,2.156 L136.052,3.125 L135.738,3.125 L135.124,2.156 L134.673,2.156 L134.673,3.125 L134.404,3.125 Z M134.452,0.543 C134.257,0.627 134.089,0.742 133.947,0.888 C133.805,1.033 133.694,1.204 133.615,1.4 C133.535,1.596 133.496,1.808 133.496,2.034 C133.496,2.261 133.535,2.472 133.615,2.668 C133.694,2.864 133.805,3.035 133.947,3.181 C134.089,3.326 134.257,3.441 134.452,3.526 C134.646,3.61 134.859,3.652 135.089,3.652 C135.315,3.652 135.525,3.61 135.72,3.526 C135.915,3.441 136.083,3.326 136.225,3.181 C136.367,3.035 136.478,2.864 136.56,2.668 C136.641,2.472 136.681,2.261 136.681,2.034 C136.681,1.808 136.641,1.596 136.56,1.4 C136.478,1.204 136.367,1.033 136.225,0.888 C136.083,0.742 135.915,0.627 135.72,0.543 C135.525,0.458 135.315,0.416 135.089,0.416 C134.859,0.416 134.646,0.458 134.452,0.543 Z M135.834,0.292 C136.064,0.388 136.264,0.522 136.433,0.693 C136.602,0.863 136.735,1.064 136.831,1.294 C136.927,1.524 136.976,1.77 136.976,2.034 C136.976,2.301 136.927,2.549 136.831,2.777 C136.735,3.006 136.602,3.204 136.433,3.373 C136.264,3.542 136.064,3.675 135.834,3.771 C135.604,3.868 135.356,3.916 135.089,3.916 C134.821,3.916 134.573,3.868 134.343,3.771 C134.113,3.675 133.913,3.542 133.744,3.373 C133.575,3.204 133.443,3.006 133.346,2.777 C133.25,2.549 133.201,2.301 133.201,2.034 C133.201,1.77 133.25,1.524 133.346,1.294 C133.443,1.064 133.575,0.863 133.744,0.693 C133.913,0.522 134.113,0.388 134.343,0.292 C134.573,0.195 134.821,0.147 135.089,0.147 C135.356,0.147 135.604,0.195 135.834,0.292 L135.834,0.292 Z" id="Fill-2"></path>
        </g>
    </g>
</svg>